<svg width="375" height="812" viewBox="0 0 375 812" fill="none" xmlns="http://www.w3.org/2000/svg">
<g clip-path="url(#clip0_710_2578)">
<rect width="375" height="812" fill="#2B323C"/>
<mask id="path-1-inside-1_710_2578" fill="white">
<path fill-rule="evenodd" clip-rule="evenodd" d="M157.394 335.498C159.064 340.859 160.136 346.216 160.65 351.487C169.775 350.603 179.046 350.15 188.435 350.15C197.825 350.15 207.096 350.603 216.222 351.487C216.736 346.216 217.809 340.859 219.479 335.498C231.421 297.171 269.394 273.114 304.294 281.764C339.195 290.413 357.806 328.495 345.865 366.821C343.113 375.653 338.979 383.728 333.818 390.819C399.739 431.825 442.87 499.958 442.87 577.075C442.87 702.402 328.956 804 188.435 804C47.9145 804 -66 702.402 -66 577.075C-66 499.957 -22.8681 431.824 43.0541 390.818C37.8928 383.725 33.758 375.65 31.0062 366.816C19.067 328.489 37.6811 290.408 72.5821 281.76C107.483 273.112 145.455 297.171 157.394 335.498Z"/>
</mask>
<path fill-rule="evenodd" clip-rule="evenodd" d="M157.394 335.498C159.064 340.859 160.136 346.216 160.65 351.487C169.775 350.603 179.046 350.15 188.435 350.15C197.825 350.15 207.096 350.603 216.222 351.487C216.736 346.216 217.809 340.859 219.479 335.498C231.421 297.171 269.394 273.114 304.294 281.764C339.195 290.413 357.806 328.495 345.865 366.821C343.113 375.653 338.979 383.728 333.818 390.819C399.739 431.825 442.87 499.958 442.87 577.075C442.87 702.402 328.956 804 188.435 804C47.9145 804 -66 702.402 -66 577.075C-66 499.957 -22.8681 431.824 43.0541 390.818C37.8928 383.725 33.758 375.65 31.0062 366.816C19.067 328.489 37.6811 290.408 72.5821 281.76C107.483 273.112 145.455 297.171 157.394 335.498Z" fill="#E2B45B"/>
<path d="M160.65 351.487L148.371 352.683L149.567 364.955L161.839 363.766L160.65 351.487ZM157.394 335.498L145.616 339.167L145.616 339.167L157.394 335.498ZM216.222 351.487L215.033 363.766L227.305 364.955L228.5 352.684L216.222 351.487ZM219.479 335.498L207.701 331.828L207.701 331.828L219.479 335.498ZM304.294 281.764L301.326 293.738L304.294 281.764ZM345.865 366.821L334.087 363.152L334.087 363.152L345.865 366.821ZM333.818 390.819L323.844 383.56L316.037 394.286L327.302 401.294L333.818 390.819ZM43.0541 390.818L49.57 401.293L60.835 394.285L53.0286 383.559L43.0541 390.818ZM31.0062 366.816L42.7842 363.147L42.7842 363.147L31.0062 366.816ZM72.5821 281.76L75.5492 293.734L72.5821 281.76ZM172.928 350.291C172.332 344.172 171.09 337.987 169.172 331.829L145.616 339.167C147.038 343.731 147.94 348.259 148.371 352.683L172.928 350.291ZM188.435 337.813C178.648 337.813 168.981 338.286 159.46 339.209L161.839 363.766C170.57 362.92 179.443 362.486 188.435 362.486V337.813ZM217.412 339.209C207.89 338.286 198.222 337.813 188.435 337.813V362.486C197.427 362.486 206.302 362.92 215.033 363.766L217.412 339.209ZM228.5 352.684C228.932 348.26 229.835 343.732 231.257 339.167L207.701 331.828C205.783 337.986 204.541 344.171 203.944 350.291L228.5 352.684ZM231.257 339.167C241.614 305.927 273.869 286.933 301.326 293.738L307.262 269.79C264.918 259.295 221.228 288.415 207.701 331.828L231.257 339.167ZM301.326 293.738C328.017 300.353 344.344 330.233 334.087 363.152L357.643 370.491C371.269 326.757 350.372 280.474 307.262 269.79L301.326 293.738ZM334.087 363.152C331.744 370.67 328.228 377.536 323.844 383.56L343.793 398.078C349.73 389.92 354.481 380.637 357.643 370.491L334.087 363.152ZM455.206 577.075C455.206 495.111 409.349 423.275 340.334 380.344L327.302 401.294C390.129 440.375 430.534 504.804 430.534 577.075H455.206ZM188.435 816.336C334.404 816.336 455.206 710.505 455.206 577.075H430.534C430.534 694.3 323.508 791.664 188.435 791.664V816.336ZM-78.3362 577.075C-78.3362 710.505 42.4665 816.336 188.435 816.336V791.664C53.3624 791.664 -53.6638 694.3 -53.6638 577.075H-78.3362ZM36.5382 380.343C-32.4784 423.274 -78.3362 495.11 -78.3362 577.075H-53.6638C-53.6638 504.804 -13.2578 440.374 49.57 401.293L36.5382 380.343ZM19.2282 370.485C22.3893 380.632 27.1415 389.917 33.0796 398.077L53.0286 383.559C48.644 377.534 45.1268 370.667 42.7842 363.147L19.2282 370.485ZM69.615 269.786C26.5039 280.469 5.60446 326.75 19.2282 370.485L42.7842 363.147C32.5295 330.228 48.8584 300.348 75.5492 293.734L69.615 269.786ZM169.172 331.829C155.648 288.416 111.96 259.293 69.615 269.786L75.5492 293.734C103.007 286.931 135.261 305.927 145.616 339.167L169.172 331.829Z" fill="#B48A3E" mask="url(#path-1-inside-1_710_2578)"/>
<ellipse cx="142.174" cy="441.913" rx="23.1305" ry="30.8406" fill="black"/>
<ellipse cx="234.696" cy="441.913" rx="23.1305" ry="30.8406" fill="black"/>
<path d="M203.02 522.504C203.02 529.535 201.172 534.009 198.789 536.669C196.45 539.282 193.136 540.666 189.044 540.666C184.938 540.666 181.494 539.271 179.045 536.617C176.576 533.94 174.657 529.476 174.657 522.504C174.657 515.489 176.529 512.398 178.442 510.85C180.569 509.129 183.919 508.323 188.838 508.323C193.757 508.323 197.108 509.129 199.235 510.85C201.147 512.398 203.02 515.489 203.02 522.504Z" stroke="#BA3A3B" stroke-width="9.4541"/>
<g filter="url(#filter0_f_710_2578)">
<circle cx="319.507" cy="511.305" r="23.1305" fill="#9F3435"/>
</g>
<g filter="url(#filter1_f_710_2578)">
<circle cx="72.7816" cy="511.305" r="23.1305" fill="#9F3435"/>
</g>
<rect y="585" width="375" height="295" fill="#E2B45B"/>
<rect x="72" y="116" width="232" height="48" rx="24" fill="#F1F4F5"/>
<path fill-rule="evenodd" clip-rule="evenodd" d="M109 148.819C115.904 148.819 121.5 144.566 121.5 139.319C121.5 134.073 115.904 129.819 109 129.819C102.096 129.819 96.5 134.073 96.5 139.319C96.5 142.134 98.1103 144.662 100.669 146.402L99.6958 149.531C99.5665 149.947 99.9936 150.318 100.387 150.131L104.499 148.185C105.895 148.595 107.413 148.819 109 148.819Z" fill="#2B323C"/>
<circle cx="103.35" cy="139.819" r="1.5" fill="#F1F4F5"/>
<circle cx="109.35" cy="139.819" r="1.5" fill="#F1F4F5"/>
<circle cx="115.35" cy="139.819" r="1.5" fill="#F1F4F5"/>
<path d="M150.438 145.662H149.193V139.387H147.621V145.033H146.404V133.658H147.621V138.32H149.193V133.412H150.438V145.662ZM141.824 141.403C143.141 141.39 144.395 141.264 145.584 141.027L145.721 142.162C144.932 142.303 144.18 142.404 143.465 142.463C142.754 142.518 142.038 142.545 141.318 142.545H140.525V134.861H141.824V141.403ZM155.523 133.822C156.134 133.827 156.681 133.948 157.164 134.185C157.652 134.417 158.035 134.743 158.312 135.162C158.59 135.577 158.732 136.046 158.736 136.57C158.732 137.099 158.59 137.571 158.312 137.985C158.035 138.4 157.652 138.724 157.164 138.956C156.681 139.188 156.134 139.305 155.523 139.305C154.908 139.305 154.354 139.188 153.862 138.956C153.375 138.724 152.992 138.4 152.714 137.985C152.436 137.571 152.297 137.099 152.297 136.57C152.297 136.046 152.436 135.577 152.714 135.162C152.992 134.743 153.375 134.417 153.862 134.185C154.354 133.948 154.908 133.827 155.523 133.822ZM155.523 134.916C155.15 134.911 154.812 134.978 154.512 135.114C154.215 135.251 153.983 135.447 153.814 135.702C153.646 135.953 153.564 136.242 153.568 136.57C153.564 136.903 153.644 137.197 153.808 137.452C153.976 137.707 154.209 137.906 154.505 138.047C154.806 138.184 155.145 138.252 155.523 138.252C155.897 138.252 156.232 138.181 156.528 138.04C156.825 137.899 157.057 137.703 157.226 137.452C157.394 137.197 157.479 136.903 157.479 136.57C157.479 136.242 157.394 135.953 157.226 135.702C157.057 135.447 156.822 135.251 156.521 135.114C156.225 134.978 155.893 134.911 155.523 134.916ZM162.209 139.646H160.91V133.412H162.209V139.646ZM162.209 143.297H155.455V144.473H162.619V145.512H154.197V142.326H160.924V141.246H154.156V140.207H162.209V143.297ZM171.506 144.637C170.831 144.637 170.225 144.523 169.688 144.295C169.154 144.067 168.733 143.748 168.423 143.338C168.118 142.923 167.956 142.449 167.938 141.916H169.469C169.487 142.203 169.585 142.454 169.763 142.668C169.945 142.882 170.187 143.049 170.487 143.167C170.788 143.281 171.123 143.338 171.492 143.338C171.884 143.338 172.237 143.27 172.552 143.133C172.866 142.996 173.112 142.807 173.29 142.565C173.468 142.319 173.557 142.039 173.557 141.725C173.557 141.401 173.468 141.112 173.29 140.856C173.112 140.601 172.855 140.403 172.518 140.262C172.185 140.116 171.788 140.043 171.328 140.043H170.48V138.812H171.328C171.697 138.812 172.028 138.746 172.319 138.614C172.611 138.482 172.837 138.298 172.996 138.061C173.16 137.824 173.242 137.55 173.242 137.24C173.242 136.939 173.172 136.675 173.03 136.447C172.889 136.219 172.688 136.042 172.429 135.914C172.169 135.786 171.866 135.723 171.52 135.723C171.182 135.723 170.87 135.782 170.583 135.9C170.296 136.019 170.063 136.188 169.886 136.406C169.713 136.625 169.619 136.88 169.605 137.172H168.156C168.17 136.648 168.327 136.181 168.628 135.771C168.933 135.356 169.341 135.035 169.852 134.807C170.362 134.579 170.923 134.465 171.533 134.465C172.162 134.465 172.716 134.586 173.194 134.827C173.677 135.069 174.049 135.397 174.309 135.812C174.568 136.222 174.696 136.671 174.691 137.158C174.696 137.714 174.539 138.188 174.22 138.58C173.905 138.967 173.479 139.227 172.941 139.359V139.428C173.611 139.523 174.133 139.781 174.507 140.2C174.885 140.619 175.074 141.146 175.074 141.779C175.074 142.322 174.919 142.812 174.609 143.249C174.299 143.682 173.873 144.021 173.331 144.268C172.789 144.514 172.18 144.637 171.506 144.637ZM180.803 136.529C180.798 137.268 180.933 137.994 181.206 138.71C181.484 139.421 181.869 140.054 182.361 140.61C182.858 141.166 183.419 141.583 184.043 141.861L183.264 142.887C182.566 142.554 181.949 142.064 181.411 141.417C180.873 140.765 180.459 140.018 180.167 139.175C179.88 140.082 179.461 140.884 178.909 141.581C178.362 142.278 177.727 142.805 177.002 143.16L176.209 142.066C176.842 141.784 177.408 141.355 177.904 140.781C178.406 140.207 178.795 139.549 179.073 138.806C179.351 138.058 179.49 137.299 179.49 136.529V134.438H180.803V136.529ZM186.449 145.689H185.15V133.412H186.449V145.689ZM198.945 145.662H197.701V133.412H198.945V145.662ZM196.457 145.061H195.213V139.154H193.832C193.796 139.947 193.663 140.635 193.436 141.219C193.208 141.802 192.9 142.251 192.513 142.565C192.125 142.875 191.681 143.028 191.18 143.023C190.651 143.028 190.186 142.855 189.785 142.504C189.389 142.153 189.081 141.652 188.862 141C188.648 140.344 188.541 139.578 188.541 138.703C188.541 137.828 188.648 137.065 188.862 136.413C189.081 135.761 189.389 135.262 189.785 134.916C190.186 134.565 190.651 134.392 191.18 134.396C191.672 134.392 192.109 134.54 192.492 134.841C192.875 135.137 193.18 135.565 193.408 136.126C193.641 136.682 193.78 137.34 193.825 138.102H195.213V133.645H196.457V145.061ZM191.18 135.613C190.883 135.613 190.628 135.736 190.414 135.982C190.2 136.224 190.034 136.577 189.915 137.042C189.801 137.502 189.744 138.056 189.744 138.703C189.744 139.35 189.801 139.906 189.915 140.371C190.034 140.831 190.2 141.185 190.414 141.431C190.628 141.672 190.883 141.793 191.18 141.793C191.48 141.793 191.74 141.672 191.959 141.431C192.178 141.185 192.346 140.831 192.465 140.371C192.583 139.906 192.643 139.35 192.643 138.703C192.643 138.056 192.583 137.502 192.465 137.042C192.346 136.577 192.178 136.224 191.959 135.982C191.74 135.736 191.48 135.613 191.18 135.613ZM211.236 135.695H203.936V134.656H206.943V133.357H208.242V134.656H211.236V135.695ZM207.586 136.242C208.169 136.247 208.684 136.342 209.131 136.529C209.582 136.712 209.931 136.971 210.177 137.309C210.427 137.641 210.553 138.029 210.553 138.471C210.553 138.913 210.427 139.302 210.177 139.64C209.931 139.977 209.582 140.239 209.131 140.426C208.684 140.608 208.169 140.699 207.586 140.699C206.998 140.699 206.479 140.608 206.027 140.426C205.576 140.239 205.225 139.977 204.975 139.64C204.729 139.302 204.605 138.913 204.605 138.471C204.605 138.029 204.729 137.641 204.975 137.309C205.225 136.971 205.576 136.712 206.027 136.529C206.479 136.342 206.998 136.247 207.586 136.242ZM207.586 137.24C207.24 137.24 206.937 137.29 206.677 137.391C206.417 137.491 206.214 137.634 206.068 137.821C205.927 138.008 205.859 138.225 205.863 138.471C205.859 138.849 206.011 139.147 206.321 139.366C206.636 139.58 207.057 139.688 207.586 139.688C208.11 139.688 208.532 139.58 208.851 139.366C209.17 139.147 209.331 138.849 209.336 138.471C209.331 138.225 209.256 138.008 209.11 137.821C208.965 137.634 208.759 137.491 208.495 137.391C208.231 137.29 207.928 137.24 207.586 137.24ZM213.547 136.734H215.324V137.814H213.547V141.068H212.248V133.412H213.547V136.734ZM213.547 145.662H212.248V142.75H205.453V141.697H213.547V145.662ZM225.975 135.9V136.051C225.965 137.067 225.934 137.96 225.879 138.73C225.829 139.501 225.71 140.389 225.523 141.396L224.252 141.26C224.384 140.572 224.48 139.922 224.539 139.312C224.603 138.696 224.642 138.145 224.655 137.657C224.669 137.165 224.676 136.579 224.676 135.9V135.641H217.17V134.588H225.975V135.9ZM227.191 144.008H216.021V142.928H218.66V138.963H219.959V142.928H221.723V138.963H222.994V142.928H227.191V144.008ZM238.361 135.477C238.361 136.251 238.341 137.006 238.3 137.739C238.259 138.473 238.161 139.318 238.006 140.275L236.721 140.18C236.857 139.305 236.949 138.523 236.994 137.835C237.04 137.142 237.065 136.456 237.069 135.777H232.1V134.725H238.361V135.477ZM235.217 141.896C236.68 141.841 237.965 141.743 239.072 141.602L239.141 142.572C237.236 142.873 234.902 143.023 232.141 143.023H231.566L231.416 141.971C232.533 141.962 233.371 141.95 233.932 141.937V138.225H235.217V141.896ZM241.082 138.471H242.955V139.578H241.082V145.662H239.77V133.412H241.082V138.471ZM254.152 145.662H252.908V133.412H254.152V145.662ZM251.664 145.047H250.434V138.812H248.533V137.746H250.434V133.672H251.664V145.047ZM247.33 136.83C247.33 137.541 247.426 138.231 247.617 138.901C247.813 139.567 248.103 140.171 248.485 140.713C248.873 141.255 249.344 141.688 249.9 142.012L249.121 142.969C248.551 142.627 248.064 142.162 247.658 141.574C247.253 140.986 246.94 140.314 246.722 139.558C246.498 140.378 246.177 141.109 245.758 141.752C245.339 142.39 244.837 142.891 244.254 143.256L243.461 142.285C244.021 141.943 244.498 141.485 244.89 140.911C245.286 140.337 245.585 139.699 245.785 138.997C245.986 138.291 246.086 137.568 246.086 136.83V135.846H243.83V134.793H249.436V135.846H247.33V136.83ZM259.99 141.506C259.99 142.057 260.127 142.588 260.4 143.099C260.678 143.604 261.084 144.017 261.617 144.336C261.977 144.104 262.283 143.828 262.533 143.509C262.788 143.19 262.98 142.857 263.107 142.511C263.235 142.164 263.299 141.829 263.299 141.506V140.918H264.57V141.506C264.57 141.934 264.664 142.349 264.851 142.75C265.037 143.146 265.313 143.5 265.678 143.81C266.042 144.119 266.484 144.359 267.004 144.527L266.361 145.484C265.769 145.279 265.265 144.983 264.851 144.596C264.44 144.213 264.124 143.764 263.9 143.249C263.695 143.769 263.404 144.233 263.025 144.644C262.652 145.054 262.196 145.37 261.658 145.594C261.093 145.38 260.617 145.072 260.229 144.671C259.847 144.27 259.555 143.807 259.354 143.283C259.127 143.78 258.81 144.22 258.404 144.603C257.999 144.985 257.516 145.279 256.955 145.484L256.299 144.527C256.805 144.345 257.24 144.094 257.604 143.775C257.974 143.456 258.252 143.101 258.438 142.709C258.63 142.312 258.728 141.911 258.732 141.506V140.918H259.99V141.506ZM265.896 140.398H264.598V133.426H265.896V140.398ZM259.252 134.096C259.872 134.096 260.428 134.219 260.92 134.465C261.417 134.711 261.804 135.055 262.082 135.497C262.365 135.935 262.506 136.434 262.506 136.994C262.506 137.55 262.365 138.047 262.082 138.484C261.804 138.917 261.417 139.257 260.92 139.503C260.428 139.744 259.872 139.865 259.252 139.865C258.632 139.865 258.074 139.744 257.577 139.503C257.08 139.257 256.691 138.917 256.408 138.484C256.126 138.047 255.984 137.55 255.984 136.994C255.984 136.434 256.126 135.935 256.408 135.497C256.691 135.055 257.08 134.711 257.577 134.465C258.074 134.219 258.632 134.096 259.252 134.096ZM259.252 135.203C258.869 135.199 258.525 135.271 258.22 135.422C257.919 135.568 257.682 135.777 257.509 136.051C257.34 136.324 257.256 136.639 257.256 136.994C257.256 137.345 257.34 137.657 257.509 137.931C257.682 138.2 257.919 138.409 258.22 138.56C258.525 138.71 258.869 138.785 259.252 138.785C259.63 138.785 259.97 138.71 260.271 138.56C260.571 138.409 260.806 138.2 260.975 137.931C261.148 137.657 261.234 137.345 261.234 136.994C261.234 136.639 261.148 136.324 260.975 136.051C260.806 135.777 260.571 135.568 260.271 135.422C259.97 135.271 259.63 135.199 259.252 135.203ZM271.16 134.328C271.712 134.328 272.208 134.479 272.65 134.779C273.092 135.076 273.45 135.502 273.724 136.058C274.002 136.609 274.173 137.258 274.236 138.006H276.766V133.412H278.051V145.689H276.766V139.059H274.25C274.204 139.842 274.045 140.526 273.771 141.109C273.498 141.693 273.136 142.142 272.685 142.456C272.233 142.771 271.725 142.928 271.16 142.928C270.549 142.928 270.009 142.752 269.54 142.401C269.071 142.046 268.704 141.545 268.439 140.897C268.18 140.246 268.052 139.487 268.057 138.621C268.052 137.76 268.18 137.006 268.439 136.358C268.704 135.707 269.071 135.205 269.54 134.854C270.014 134.504 270.554 134.328 271.16 134.328ZM271.16 135.49C270.791 135.49 270.465 135.618 270.183 135.873C269.9 136.128 269.679 136.493 269.52 136.967C269.365 137.436 269.287 137.988 269.287 138.621C269.287 139.259 269.365 139.815 269.52 140.289C269.679 140.763 269.9 141.128 270.183 141.383C270.465 141.638 270.791 141.766 271.16 141.766C271.529 141.766 271.855 141.638 272.138 141.383C272.42 141.128 272.639 140.763 272.794 140.289C272.953 139.815 273.033 139.259 273.033 138.621C273.033 137.988 272.953 137.436 272.794 136.967C272.639 136.493 272.42 136.128 272.138 135.873C271.855 135.618 271.529 135.49 271.16 135.49Z" fill="#343845"/>
<path d="M64.5107 194.013H66.377V187.491H68.8379V205.025H66.377V196.104H64.5107V201.19H57.0869V189.152H64.5107V194.013ZM59.5273 199.14H62.0703V191.224H59.5273V199.14ZM72.7344 205.887H70.2324V187.225H72.7344V205.887ZM91.7861 203.713H74.7031V201.56H81.9014V197.745H76.5078V188.599H89.8789V197.745H84.5059V201.56H91.7861V203.713ZM79.0918 195.694H87.2949V190.69H79.0918V195.694ZM107.577 194.525H110.325V196.679H107.577V205.887H104.993V187.225H107.577V194.525ZM103.722 192.105H92.75V190.014H96.9746V187.512H99.5996V190.014H103.722V192.105ZM98.2871 193.151C99.1895 193.151 99.9995 193.343 100.717 193.726C101.442 194.102 102.009 194.628 102.419 195.305C102.836 195.981 103.045 196.747 103.045 197.602C103.045 198.456 102.836 199.222 102.419 199.898C102.009 200.575 101.442 201.105 100.717 201.488C99.9995 201.864 99.1895 202.052 98.2871 202.052C97.3779 202.052 96.561 201.864 95.8364 201.488C95.1118 201.105 94.541 200.575 94.124 199.898C93.7139 199.222 93.5088 198.456 93.5088 197.602C93.5088 196.747 93.7139 195.981 94.124 195.305C94.541 194.628 95.1118 194.102 95.8364 193.726C96.561 193.343 97.3779 193.151 98.2871 193.151ZM98.2871 195.264C97.8496 195.271 97.4565 195.37 97.1079 195.561C96.7661 195.752 96.4961 196.022 96.2979 196.371C96.1064 196.72 96.0107 197.13 96.0107 197.602C96.0107 198.08 96.1064 198.494 96.2979 198.842C96.4961 199.191 96.7661 199.458 97.1079 199.642C97.4565 199.82 97.8496 199.905 98.2871 199.898C98.7246 199.905 99.1143 199.82 99.4561 199.642C99.7979 199.458 100.064 199.191 100.256 198.842C100.447 198.494 100.543 198.08 100.543 197.602C100.543 197.13 100.447 196.72 100.256 196.371C100.064 196.022 99.7979 195.752 99.4561 195.561C99.1143 195.37 98.7246 195.271 98.2871 195.264ZM128.064 197.991H111.002V195.899H128.064V197.991ZM126.26 194.484H113.073V187.819H126.055V189.932H115.678V192.393H126.26V194.484ZM120.866 199.406C120.866 200.083 121.088 200.726 121.533 201.334C121.984 201.936 122.661 202.455 123.563 202.893C124.472 203.323 125.59 203.617 126.916 203.774L125.973 205.784C124.455 205.579 123.149 205.189 122.056 204.615C120.962 204.048 120.125 203.337 119.543 202.482C118.962 203.344 118.128 204.058 117.042 204.625C115.955 205.193 114.652 205.579 113.135 205.784L112.191 203.774C113.511 203.617 114.618 203.323 115.514 202.893C116.416 202.455 117.089 201.936 117.534 201.334C117.978 200.726 118.2 200.083 118.2 199.406V199.058H120.866V199.406ZM144.778 205.928H142.133V187.225H144.778V205.928ZM134.647 188.537C135.584 188.537 136.421 188.811 137.16 189.357C137.905 189.904 138.489 190.68 138.913 191.685C139.337 192.69 139.549 193.855 139.549 195.182C139.549 196.521 139.337 197.697 138.913 198.709C138.489 199.714 137.905 200.49 137.16 201.037C136.421 201.577 135.584 201.847 134.647 201.847C133.69 201.847 132.836 201.577 132.084 201.037C131.332 200.49 130.744 199.714 130.32 198.709C129.903 197.697 129.698 196.521 129.705 195.182C129.698 193.855 129.903 192.69 130.32 191.685C130.744 190.68 131.332 189.904 132.084 189.357C132.836 188.811 133.69 188.537 134.647 188.537ZM134.647 190.896C134.162 190.896 133.735 191.063 133.366 191.398C133.003 191.726 132.723 192.211 132.525 192.854C132.327 193.497 132.228 194.272 132.228 195.182C132.228 196.098 132.327 196.877 132.525 197.52C132.723 198.162 133.003 198.647 133.366 198.976C133.735 199.304 134.162 199.468 134.647 199.468C135.126 199.468 135.543 199.304 135.898 198.976C136.254 198.641 136.531 198.152 136.729 197.509C136.927 196.867 137.026 196.091 137.026 195.182C137.026 194.279 136.927 193.507 136.729 192.864C136.531 192.215 136.25 191.726 135.888 191.398C135.533 191.063 135.119 190.896 134.647 190.896ZM157.452 187.778C158.389 187.778 159.236 187.959 159.995 188.322C160.754 188.684 161.349 189.19 161.779 189.839C162.217 190.489 162.436 191.224 162.436 192.044C162.436 192.851 162.217 193.579 161.779 194.228C161.349 194.871 160.754 195.376 159.995 195.746C159.236 196.108 158.389 196.289 157.452 196.289C156.502 196.289 155.644 196.108 154.878 195.746C154.113 195.376 153.511 194.871 153.074 194.228C152.643 193.579 152.428 192.851 152.428 192.044C152.428 191.224 152.643 190.489 153.074 189.839C153.511 189.19 154.109 188.684 154.868 188.322C155.634 187.959 156.495 187.778 157.452 187.778ZM157.452 189.911C156.974 189.911 156.543 189.997 156.16 190.167C155.784 190.332 155.49 190.578 155.278 190.906C155.066 191.227 154.964 191.606 154.971 192.044C154.964 192.481 155.066 192.861 155.278 193.182C155.49 193.503 155.784 193.75 156.16 193.92C156.543 194.091 156.974 194.177 157.452 194.177C157.924 194.177 158.344 194.091 158.713 193.92C159.089 193.75 159.383 193.503 159.595 193.182C159.807 192.861 159.913 192.481 159.913 192.044C159.913 191.6 159.807 191.217 159.595 190.896C159.383 190.574 159.089 190.332 158.713 190.167C158.344 189.997 157.924 189.911 157.452 189.911ZM167.768 196.576H165.143V187.225H167.768V196.576ZM167.768 202.421H157.842V203.631H168.28V205.682H155.278V200.514H165.163V199.365H155.237V197.355H167.768V202.421ZM186.02 198.299H183.415V193.89H180.503V191.777H183.415V187.225H186.02V198.299ZM179.642 198.709C180.968 198.716 182.109 198.863 183.066 199.15C184.03 199.43 184.772 199.84 185.292 200.38C185.811 200.92 186.074 201.566 186.081 202.318C186.074 203.063 185.811 203.706 185.292 204.246C184.772 204.786 184.03 205.196 183.066 205.477C182.103 205.764 180.961 205.907 179.642 205.907C178.322 205.907 177.181 205.764 176.217 205.477C175.253 205.196 174.511 204.786 173.992 204.246C173.479 203.706 173.223 203.063 173.223 202.318C173.223 201.566 173.479 200.92 173.992 200.38C174.511 199.84 175.25 199.43 176.207 199.15C177.17 198.863 178.315 198.716 179.642 198.709ZM179.642 200.719C177.099 200.719 175.827 201.252 175.827 202.318C175.827 202.852 176.148 203.251 176.791 203.518C177.44 203.785 178.391 203.918 179.642 203.918C180.893 203.918 181.843 203.785 182.492 203.518C183.148 203.245 183.477 202.845 183.477 202.318C183.477 201.252 182.198 200.719 179.642 200.719ZM181.057 190.444H177.345C177.365 191.196 177.533 191.921 177.847 192.618C178.168 193.309 178.644 193.931 179.272 194.484C179.908 195.038 180.694 195.469 181.631 195.776L180.339 197.827C179.341 197.506 178.479 197.027 177.755 196.392C177.037 195.749 176.47 194.994 176.053 194.125C175.622 195.11 175.027 195.964 174.269 196.689C173.51 197.407 172.594 197.95 171.521 198.319L170.167 196.248C171.151 195.92 171.975 195.455 172.638 194.854C173.308 194.245 173.807 193.562 174.135 192.803C174.47 192.044 174.651 191.258 174.679 190.444H170.926V188.353H181.057V190.444ZM196.95 187.491C198.379 187.491 199.599 187.614 200.611 187.86C201.623 188.106 202.395 188.469 202.928 188.947C203.461 189.419 203.731 189.993 203.738 190.67C203.731 191.354 203.461 191.935 202.928 192.413C202.395 192.892 201.623 193.254 200.611 193.5C199.599 193.746 198.379 193.869 196.95 193.869C195.515 193.869 194.288 193.746 193.269 193.5C192.25 193.254 191.475 192.892 190.941 192.413C190.408 191.935 190.142 191.354 190.142 190.67C190.142 189.993 190.408 189.419 190.941 188.947C191.475 188.469 192.25 188.106 193.269 187.86C194.288 187.614 195.515 187.491 196.95 187.491ZM196.95 189.398C195.59 189.398 194.568 189.508 193.884 189.727C193.208 189.938 192.876 190.253 192.89 190.67C192.883 191.121 193.208 191.446 193.864 191.644C194.52 191.842 195.549 191.941 196.95 191.941C198.358 191.941 199.391 191.842 200.047 191.644C200.703 191.446 201.031 191.121 201.031 190.67C201.031 190.253 200.693 189.938 200.016 189.727C199.339 189.508 198.317 189.398 196.95 189.398ZM205.461 196.822H188.439V194.751H205.461V196.822ZM203.39 202.667H192.992V203.795H203.882V205.764H190.429V200.842H200.806V199.816H190.408V197.909H203.39V202.667ZM218.935 189.973V190.26C218.928 191.203 218.897 192.064 218.842 192.844C218.794 193.623 218.671 194.583 218.473 195.725C218.282 196.86 217.984 198.135 217.581 199.55L214.997 199.14C215.496 197.526 215.834 196.07 216.012 194.771C216.197 193.473 216.299 192.229 216.32 191.039H212.659V188.947H218.935V189.973ZM228.45 203.303H211.429V201.149H228.45V203.303ZM226.728 190.28C226.728 191.292 226.714 192.188 226.687 192.967C226.666 193.739 226.598 194.689 226.481 195.817C226.372 196.938 226.194 198.169 225.948 199.509L223.323 199.242C223.638 197.629 223.846 196.173 223.949 194.874C224.058 193.575 224.116 192.297 224.123 191.039H220.124V188.947H226.728V190.28ZM240.345 190.342H236.633C236.64 191.101 236.797 191.835 237.104 192.546C237.419 193.257 237.894 193.896 238.53 194.464C239.172 195.024 239.969 195.462 240.919 195.776L239.627 197.786C238.622 197.465 237.757 196.986 237.033 196.351C236.315 195.715 235.748 194.963 235.331 194.095C234.9 195.065 234.305 195.903 233.546 196.607C232.788 197.311 231.875 197.834 230.809 198.176L229.476 196.104C230.46 195.79 231.287 195.332 231.957 194.73C232.627 194.129 233.126 193.449 233.454 192.69C233.782 191.931 233.953 191.148 233.967 190.342H230.214V188.271H240.345V190.342ZM245.308 205.887H242.703V201.252H232.49V199.16H245.308V205.887ZM245.308 198.34H242.703V193.849H239.812V191.716H242.703V187.225H245.308V198.34ZM252.875 188.537C253.709 188.537 254.461 188.756 255.131 189.193C255.808 189.631 256.361 190.253 256.792 191.06H260.894V187.225H263.478V205.928H260.894V198.935H256.987C256.57 199.864 256.002 200.582 255.285 201.088C254.574 201.594 253.771 201.847 252.875 201.847C251.932 201.847 251.091 201.577 250.353 201.037C249.621 200.49 249.05 199.714 248.64 198.709C248.23 197.697 248.028 196.521 248.035 195.182C248.028 193.849 248.23 192.683 248.64 191.685C249.05 190.68 249.621 189.904 250.353 189.357C251.091 188.811 251.932 188.537 252.875 188.537ZM252.875 190.896C252.41 190.896 252 191.063 251.645 191.398C251.289 191.726 251.012 192.215 250.814 192.864C250.623 193.507 250.53 194.279 250.537 195.182C250.53 196.091 250.623 196.867 250.814 197.509C251.012 198.152 251.286 198.641 251.634 198.976C251.99 199.304 252.403 199.468 252.875 199.468C253.347 199.468 253.757 199.304 254.105 198.976C254.461 198.647 254.734 198.162 254.926 197.52C255.117 196.877 255.213 196.098 255.213 195.182C255.213 194.272 255.117 193.497 254.926 192.854C254.734 192.211 254.461 191.726 254.105 191.398C253.757 191.063 253.347 190.896 252.875 190.896ZM257.52 193.172C257.65 193.821 257.715 194.491 257.715 195.182C257.715 195.694 257.674 196.248 257.592 196.843H260.894V193.172H257.52ZM282.96 203.713H265.877V201.58H273.075V198.135H267.682V188.414H270.307V191.306H278.448V188.414H281.053V198.135H275.68V201.58H282.96V203.713ZM278.448 196.043V193.397H270.307V196.043H278.448ZM290.015 191.921C290.015 193.589 290.281 195.11 290.814 196.484C291.348 197.858 292.209 198.928 293.398 199.693L291.983 201.724C290.479 200.814 289.403 199.321 288.753 197.243C288.405 198.336 287.943 199.304 287.369 200.145C286.795 200.979 286.098 201.642 285.277 202.134L283.678 200.206C284.983 199.393 285.94 198.261 286.549 196.812C287.164 195.356 287.472 193.767 287.472 192.044V188.824H290.015V191.921ZM300.207 205.887H297.705V187.225H300.207V205.887ZM296.29 205.025H293.85V195.653H291.43V193.521H293.85V187.491H296.29V205.025ZM319.259 203.713H302.176V201.56H305.99V196.997C305.252 196.552 304.681 196.005 304.278 195.356C303.875 194.7 303.673 193.965 303.673 193.151C303.673 192.16 303.974 191.285 304.575 190.526C305.177 189.768 306.007 189.18 307.067 188.763C308.133 188.339 309.34 188.127 310.687 188.127C312.026 188.127 313.226 188.339 314.286 188.763C315.352 189.18 316.189 189.768 316.798 190.526C317.406 191.285 317.714 192.16 317.721 193.151C317.714 193.944 317.512 194.666 317.116 195.315C316.726 195.958 316.176 196.501 315.465 196.945V201.56H319.259V203.713ZM310.687 190.198C309.798 190.198 309.019 190.314 308.349 190.547C307.686 190.779 307.169 191.118 306.8 191.562C306.438 192 306.257 192.529 306.257 193.151C306.257 193.753 306.438 194.276 306.8 194.72C307.169 195.165 307.689 195.506 308.359 195.746C309.029 195.985 309.805 196.104 310.687 196.104C311.562 196.104 312.334 195.985 313.004 195.746C313.674 195.506 314.193 195.165 314.562 194.72C314.938 194.276 315.13 193.753 315.137 193.151C315.13 192.536 314.942 192.006 314.573 191.562C314.204 191.118 313.684 190.779 313.014 190.547C312.344 190.314 311.568 190.198 310.687 190.198ZM312.819 201.56V197.94C312.115 198.07 311.404 198.135 310.687 198.135C309.921 198.135 309.217 198.07 308.574 197.94V201.56H312.819Z" fill="white"/>
</g>
<defs>
<filter id="filter0_f_710_2578" x="228.527" y="420.325" width="181.96" height="181.96" filterUnits="userSpaceOnUse" color-interpolation-filters="sRGB">
<feFlood flood-opacity="0" result="BackgroundImageFix"/>
<feBlend mode="normal" in="SourceGraphic" in2="BackgroundImageFix" result="shape"/>
<feGaussianBlur stdDeviation="33.9247" result="effect1_foregroundBlur_710_2578"/>
</filter>
<filter id="filter1_f_710_2578" x="-18.1982" y="420.325" width="181.96" height="181.96" filterUnits="userSpaceOnUse" color-interpolation-filters="sRGB">
<feFlood flood-opacity="0" result="BackgroundImageFix"/>
<feBlend mode="normal" in="SourceGraphic" in2="BackgroundImageFix" result="shape"/>
<feGaussianBlur stdDeviation="33.9247" result="effect1_foregroundBlur_710_2578"/>
</filter>
<clipPath id="clip0_710_2578">
<rect width="375" height="812" fill="white"/>
</clipPath>
</defs>
</svg>
